<svg width="140" height="158" viewBox="0 0 140 158" fill="none" xmlns="http://www.w3.org/2000/svg">
<path d="M0 35.8077L68.6538 0L139.462 36.3462L0 121.154V35.8077Z" fill="#0D2461"/>
<path d="M140 121.423L71.3462 157.23L0.538452 120.884L140 36.0764L140 121.423Z" fill="#0D2461"/>
<path d="M15.1528 86.7998V68.9287H18.876C20.1862 68.9287 21.1506 68.9979 21.769 69.1362C22.3957 69.2664 22.9328 69.4943 23.3804 69.8198C23.95 70.243 24.3895 70.7882 24.6987 71.4556C25.0161 72.1147 25.1748 72.839 25.1748 73.6284C25.1748 74.5724 24.9469 75.3618 24.4912 75.9966C24.0436 76.6313 23.3885 77.0749 22.5259 77.3271C23.5838 77.4899 24.418 77.966 25.0283 78.7554C25.6468 79.5366 25.9561 80.5254 25.9561 81.7217C25.9561 82.4378 25.8258 83.1214 25.5654 83.7725C25.305 84.4235 24.9429 84.981 24.479 85.4448C23.9744 85.9412 23.3519 86.2912 22.6113 86.4946C21.8708 86.6981 20.6257 86.7998 18.876 86.7998H15.1528ZM17.228 78.4258V84.9443H18.876C20.0072 84.9443 20.821 84.8996 21.3174 84.8101C21.8219 84.7205 22.2248 84.5659 22.5259 84.3462C22.8921 84.0858 23.181 83.7236 23.3926 83.2598C23.6042 82.7959 23.71 82.2832 23.71 81.7217C23.71 81.0706 23.5838 80.505 23.3315 80.0249C23.0793 79.5448 22.7131 79.1704 22.2329 78.9019C21.9481 78.731 21.6185 78.6089 21.2441 78.5356C20.8698 78.4624 20.2879 78.4258 19.4985 78.4258H18.876H17.228ZM17.228 70.772V76.7534H18.876C20.3896 76.7534 21.4557 76.5337 22.0742 76.0942C22.6927 75.6548 23.002 74.9142 23.002 73.8726C23.002 72.7251 22.7131 71.9235 22.1353 71.4678C21.5656 71.0039 20.4792 70.772 18.876 70.772H17.228ZM37.5649 81.3188C37.5649 80.0575 37.2191 79.0443 36.5273 78.2793C35.8438 77.5062 34.9486 77.1196 33.8418 77.1196C32.6943 77.1196 31.7992 77.4736 31.1562 78.1816C30.5133 78.8896 30.1919 79.8784 30.1919 81.1479C30.1919 82.4989 30.5133 83.5405 31.1562 84.2729C31.8073 85.0054 32.7269 85.3716 33.915 85.3716C35.0544 85.3716 35.9455 85.0176 36.5884 84.3096C37.2394 83.5934 37.5649 82.5965 37.5649 81.3188ZM39.4204 75.6304V86.7998H37.5649V84.7734C37.1174 85.5872 36.5436 86.2098 35.8438 86.6411C35.152 87.0643 34.3748 87.2759 33.5122 87.2759C31.909 87.2759 30.6151 86.7266 29.6304 85.6279C28.6538 84.5212 28.1655 83.0604 28.1655 81.2456C28.1655 79.4064 28.6416 77.9456 29.5938 76.8633C30.5459 75.7728 31.8195 75.2275 33.4146 75.2275C34.3504 75.2275 35.1602 75.4391 35.8438 75.8623C36.5355 76.2773 37.0929 76.8999 37.5161 77.73V75.6304H39.4204ZM42.0693 84.9199L43.7051 83.8213C44.0143 84.4154 44.4049 84.863 44.877 85.1641C45.349 85.457 45.9064 85.6035 46.5493 85.6035C47.1759 85.6035 47.6805 85.4489 48.063 85.1396C48.4536 84.8304 48.6489 84.4235 48.6489 83.9189C48.6489 83.5283 48.5146 83.2028 48.2461 82.9424C47.9857 82.682 47.534 82.4419 46.8911 82.2222C46.826 82.1978 46.7202 82.1611 46.5737 82.1123C43.8556 81.1764 42.4966 80.0046 42.4966 78.5967C42.4966 77.6038 42.8628 76.7941 43.5952 76.1675C44.3276 75.5409 45.2798 75.2275 46.4517 75.2275C47.4201 75.2275 48.2502 75.4229 48.9419 75.8135C49.6336 76.196 50.13 76.7412 50.4312 77.4492L48.8809 78.4014C48.653 77.8887 48.3153 77.494 47.8677 77.2173C47.4282 76.9406 46.9155 76.8022 46.3296 76.8022C45.7681 76.8022 45.3083 76.9609 44.9502 77.2783C44.6003 77.5876 44.4253 77.9863 44.4253 78.4746C44.4253 79.1582 45.1659 79.7319 46.647 80.1958C46.9237 80.2853 47.1434 80.3545 47.3062 80.4033C48.5187 80.7939 49.361 81.2415 49.833 81.7461C50.3132 82.2425 50.5532 82.9017 50.5532 83.7236C50.5532 84.7816 50.1748 85.6401 49.418 86.2993C48.6693 86.9504 47.6886 87.2759 46.4761 87.2759C45.4344 87.2759 44.5474 87.0806 43.8149 86.6899C43.0907 86.2993 42.5088 85.7093 42.0693 84.9199ZM53.4585 86.7998V67.8789H55.375V80.6963L60.7583 75.6304H63.3096L57.731 80.7451L63.8101 86.7998H61.1367L55.375 80.9038V86.7998H53.4585ZM73.6855 79.9517C73.6204 78.967 73.2909 78.2101 72.6968 77.6812C72.1108 77.144 71.3052 76.8755 70.2798 76.8755C69.3521 76.8755 68.5789 77.1562 67.9604 77.7178C67.342 78.2712 66.9839 79.0158 66.8862 79.9517H73.6855ZM75.7363 81.502H66.8862V81.6729C66.8862 82.8691 67.228 83.8376 67.9116 84.5781C68.5952 85.3105 69.4863 85.6768 70.585 85.6768C71.3337 85.6768 72.0091 85.4774 72.6113 85.0786C73.2135 84.6717 73.7466 84.0614 74.2104 83.2476L75.6631 84.2241C75.1016 85.2332 74.3854 85.9941 73.5146 86.5068C72.6439 87.0195 71.6348 87.2759 70.4873 87.2759C68.7865 87.2759 67.4111 86.7144 66.3613 85.5913C65.3115 84.4683 64.7866 82.9953 64.7866 81.1724C64.7866 79.4227 65.3075 77.9904 66.3491 76.8755C67.3908 75.7606 68.7295 75.2031 70.3652 75.2031C72.0173 75.2031 73.3234 75.7321 74.2837 76.79C75.2521 77.848 75.7363 79.2925 75.7363 81.1235V81.502ZM78.9224 77.2051H76.8716V75.6304H78.9224V71.126H80.8755V75.6304H82.9263V77.2051H80.8755V86.7998H78.9224V77.2051ZM86.918 81.27C86.918 82.5721 87.2516 83.5894 87.9189 84.3218C88.5863 85.0542 89.5018 85.4204 90.6655 85.4204C91.8049 85.4204 92.696 85.0339 93.3389 84.2607C93.9899 83.4795 94.3154 82.4012 94.3154 81.0259C94.3154 79.8052 93.998 78.849 93.3633 78.1572C92.7285 77.4655 91.8496 77.1196 90.7266 77.1196C89.5872 77.1196 88.6676 77.5021 87.9678 78.2671C87.2679 79.0239 86.918 80.0249 86.918 81.27ZM85.0991 67.8789H86.9912V77.73C87.4225 76.8999 87.98 76.2773 88.6636 75.8623C89.3472 75.4391 90.1488 75.2275 91.0684 75.2275C92.6715 75.2275 93.9492 75.7728 94.9014 76.8633C95.8617 77.9538 96.3418 79.4146 96.3418 81.2456C96.3418 83.0604 95.8535 84.5212 94.877 85.6279C93.9004 86.7266 92.6064 87.2759 90.9951 87.2759C90.1325 87.2759 89.3472 87.0602 88.6392 86.6289C87.9312 86.1895 87.3574 85.571 86.918 84.7734V86.7998H85.0991V67.8789ZM107.951 81.3188C107.951 80.0575 107.605 79.0443 106.913 78.2793C106.229 77.5062 105.334 77.1196 104.228 77.1196C103.08 77.1196 102.185 77.4736 101.542 78.1816C100.899 78.8896 100.578 79.8784 100.578 81.1479C100.578 82.4989 100.899 83.5405 101.542 84.2729C102.193 85.0054 103.113 85.3716 104.301 85.3716C105.44 85.3716 106.331 85.0176 106.974 84.3096C107.625 83.5934 107.951 82.5965 107.951 81.3188ZM109.806 75.6304V86.7998H107.951V84.7734C107.503 85.5872 106.929 86.2098 106.229 86.6411C105.538 87.0643 104.761 87.2759 103.898 87.2759C102.295 87.2759 101.001 86.7266 100.016 85.6279C99.0396 84.5212 98.5513 83.0604 98.5513 81.2456C98.5513 79.4064 99.0273 77.9456 99.9795 76.8633C100.932 75.7728 102.205 75.2275 103.8 75.2275C104.736 75.2275 105.546 75.4391 106.229 75.8623C106.921 76.2773 107.479 76.8999 107.902 77.73V75.6304H109.806ZM113.737 86.7998V67.8789H115.69V86.7998H113.737ZM119.792 86.7998V67.8789H121.745V86.7998H119.792Z" fill="white"/>
</svg>
