<svg width="140" height="158" viewBox="0 0 140 158" fill="none" xmlns="http://www.w3.org/2000/svg">
<path d="M0 35.8077L68.6538 0L139.462 36.3462L0 121.154V35.8077Z" fill="#0D2461"/>
<path d="M140 121.423L71.3462 157.23L0.538452 120.884L140 36.0764L140 121.423Z" fill="#0D2461"/>
<path d="M27.8716 88.7998V70.9287H37.2954V72.8696H29.9956V77.9966H37.2954V79.9741H29.9956V88.7998H27.8716ZM40.5669 83.2456C40.5669 84.4256 40.9616 85.4266 41.751 86.2485C42.5404 87.0623 43.4966 87.4692 44.6196 87.4692C45.7345 87.4692 46.6826 87.0623 47.4639 86.2485C48.2451 85.4266 48.6357 84.4256 48.6357 83.2456C48.6357 82.0656 48.2451 81.0687 47.4639 80.2549C46.6826 79.4329 45.7345 79.022 44.6196 79.022C43.4884 79.022 42.5282 79.4329 41.7388 80.2549C40.9575 81.0687 40.5669 82.0656 40.5669 83.2456ZM38.5405 83.2456C38.5405 82.4237 38.6911 81.6506 38.9922 80.9263C39.2933 80.1938 39.7327 79.5428 40.3105 78.9731C40.8883 78.4035 41.5435 77.9722 42.2759 77.6792C43.0083 77.3781 43.7896 77.2275 44.6196 77.2275C45.4334 77.2275 46.2025 77.3781 46.9268 77.6792C47.6592 77.9803 48.3224 78.4198 48.9165 78.9976C49.4943 79.5591 49.9338 80.2061 50.2349 80.9385C50.536 81.6628 50.6865 82.4318 50.6865 83.2456C50.6865 84.0594 50.536 84.8285 50.2349 85.5527C49.9338 86.2689 49.4943 86.9077 48.9165 87.4692C48.3224 88.0552 47.6551 88.5028 46.9146 88.812C46.1821 89.1213 45.4172 89.2759 44.6196 89.2759C43.7977 89.2759 43.0164 89.1213 42.2759 88.812C41.5435 88.5109 40.8883 88.0755 40.3105 87.5059C39.7327 86.9199 39.2933 86.2689 38.9922 85.5527C38.6911 84.8366 38.5405 84.0675 38.5405 83.2456ZM54.8003 83.2456C54.8003 84.4256 55.195 85.4266 55.9844 86.2485C56.7738 87.0623 57.73 87.4692 58.853 87.4692C59.9679 87.4692 60.916 87.0623 61.6973 86.2485C62.4785 85.4266 62.8691 84.4256 62.8691 83.2456C62.8691 82.0656 62.4785 81.0687 61.6973 80.2549C60.916 79.4329 59.9679 79.022 58.853 79.022C57.7218 79.022 56.7616 79.4329 55.9722 80.2549C55.1909 81.0687 54.8003 82.0656 54.8003 83.2456ZM52.7739 83.2456C52.7739 82.4237 52.9245 81.6506 53.2256 80.9263C53.5267 80.1938 53.9661 79.5428 54.5439 78.9731C55.1217 78.4035 55.7769 77.9722 56.5093 77.6792C57.2417 77.3781 58.0229 77.2275 58.853 77.2275C59.6668 77.2275 60.4359 77.3781 61.1602 77.6792C61.8926 77.9803 62.5558 78.4198 63.1499 78.9976C63.7277 79.5591 64.1672 80.2061 64.4683 80.9385C64.7694 81.6628 64.9199 82.4318 64.9199 83.2456C64.9199 84.0594 64.7694 84.8285 64.4683 85.5527C64.1672 86.2689 63.7277 86.9077 63.1499 87.4692C62.5558 88.0552 61.8885 88.5028 61.1479 88.812C60.4155 89.1213 59.6506 89.2759 58.853 89.2759C58.0311 89.2759 57.2498 89.1213 56.5093 88.812C55.7769 88.5109 55.1217 88.0755 54.5439 87.5059C53.9661 86.9199 53.5267 86.2689 53.2256 85.5527C52.9245 84.8366 52.7739 84.0675 52.7739 83.2456ZM68.2036 79.2051H66.1528V77.6304H68.2036V73.126H70.1567V77.6304H72.2075V79.2051H70.1567V88.7998H68.2036V79.2051ZM76.1992 83.27C76.1992 84.5721 76.5329 85.5894 77.2002 86.3218C77.8675 87.0542 78.783 87.4204 79.9468 87.4204C81.0861 87.4204 81.9772 87.0339 82.6201 86.2607C83.2712 85.4795 83.5967 84.4012 83.5967 83.0259C83.5967 81.8052 83.2793 80.849 82.6445 80.1572C82.0098 79.4655 81.1309 79.1196 80.0078 79.1196C78.8685 79.1196 77.9489 79.5021 77.249 80.2671C76.5492 81.0239 76.1992 82.0249 76.1992 83.27ZM74.3804 69.8789H76.2725V79.73C76.7038 78.8999 77.2612 78.2773 77.9448 77.8623C78.6284 77.4391 79.43 77.2275 80.3496 77.2275C81.9528 77.2275 83.2305 77.7728 84.1826 78.8633C85.1429 79.9538 85.623 81.4146 85.623 83.2456C85.623 85.0604 85.1348 86.5212 84.1582 87.6279C83.1816 88.7266 81.8877 89.2759 80.2764 89.2759C79.4137 89.2759 78.6284 89.0602 77.9204 88.6289C77.2124 88.1895 76.6387 87.571 76.1992 86.7734V88.7998H74.3804V69.8789ZM97.2319 83.3188C97.2319 82.0575 96.8861 81.0443 96.1943 80.2793C95.5107 79.5062 94.6156 79.1196 93.5088 79.1196C92.3613 79.1196 91.4661 79.4736 90.8232 80.1816C90.1803 80.8896 89.8589 81.8784 89.8589 83.1479C89.8589 84.4989 90.1803 85.5405 90.8232 86.2729C91.4743 87.0054 92.3939 87.3716 93.582 87.3716C94.7214 87.3716 95.6125 87.0176 96.2554 86.3096C96.9064 85.5934 97.2319 84.5965 97.2319 83.3188ZM99.0874 77.6304V88.7998H97.2319V86.7734C96.7843 87.5872 96.2106 88.2098 95.5107 88.6411C94.819 89.0643 94.0418 89.2759 93.1792 89.2759C91.576 89.2759 90.2821 88.7266 89.2974 87.6279C88.3208 86.5212 87.8325 85.0604 87.8325 83.2456C87.8325 81.4064 88.3086 79.9456 89.2607 78.8633C90.2129 77.7728 91.4865 77.2275 93.0815 77.2275C94.0174 77.2275 94.8271 77.4391 95.5107 77.8623C96.2025 78.2773 96.7599 78.8999 97.1831 79.73V77.6304H99.0874ZM103.018 88.7998V69.8789H104.971V88.7998H103.018ZM109.073 88.7998V69.8789H111.026V88.7998H109.073Z" fill="white"/>
</svg>
