<svg width="140" height="158" viewBox="0 0 140 158" fill="none" xmlns="http://www.w3.org/2000/svg">
<path d="M0 35.8077L68.6538 0L139.462 36.3462L0 121.154V35.8077Z" fill="#0D2461"/>
<path d="M140 121.423L71.3462 157.23L0.538452 120.884L140 36.0764L140 121.423Z" fill="#0D2461"/>
<path d="M22.2505 85.7998V67.9287H24.3745V74.8013H33.8716V67.9287H36.0322V85.7998H33.8716V76.8276H24.3745V85.7998H22.2505ZM48.6665 80.3188C48.6665 79.0575 48.3206 78.0443 47.6289 77.2793C46.9453 76.5062 46.0501 76.1196 44.9434 76.1196C43.7959 76.1196 42.9007 76.4736 42.2578 77.1816C41.6149 77.8896 41.2935 78.8784 41.2935 80.1479C41.2935 81.4989 41.6149 82.5405 42.2578 83.2729C42.9089 84.0054 43.8285 84.3716 45.0166 84.3716C46.1559 84.3716 47.047 84.0176 47.6899 83.3096C48.341 82.5934 48.6665 81.5965 48.6665 80.3188ZM50.522 74.6304V85.7998H48.6665V83.7734C48.2189 84.5872 47.6452 85.2098 46.9453 85.6411C46.2536 86.0643 45.4764 86.2759 44.6138 86.2759C43.0106 86.2759 41.7166 85.7266 40.7319 84.6279C39.7554 83.5212 39.2671 82.0604 39.2671 80.2456C39.2671 78.4064 39.7432 76.9456 40.6953 75.8633C41.6475 74.7728 42.9211 74.2275 44.5161 74.2275C45.452 74.2275 46.2617 74.4391 46.9453 74.8623C47.637 75.2773 48.1945 75.8999 48.6177 76.73V74.6304H50.522ZM54.355 85.7998V74.6304H56.2227V76.3516C56.7028 75.6354 57.2806 75.1024 57.9561 74.7524C58.6315 74.4025 59.4128 74.2275 60.2998 74.2275C61.6182 74.2275 62.6476 74.5775 63.3882 75.2773C64.1287 75.9772 64.499 76.9497 64.499 78.1948V85.7998H62.5459V79.2202C62.5459 78.089 62.3058 77.2508 61.8257 76.7056C61.3537 76.1522 60.6213 75.8755 59.6284 75.8755C59.0588 75.8755 58.5379 75.9813 58.0659 76.1929C57.6021 76.3963 57.2155 76.6893 56.9062 77.0718C56.6702 77.3647 56.4993 77.6984 56.3936 78.0728C56.2959 78.4471 56.2471 79.0981 56.2471 80.0259V85.7998H54.355ZM76.8403 80.27C76.8403 79.0249 76.4945 78.0239 75.8027 77.2671C75.111 76.5021 74.1995 76.1196 73.0684 76.1196C71.9372 76.1196 71.0542 76.4655 70.4194 77.1572C69.7847 77.849 69.4673 78.8052 69.4673 80.0259C69.4673 81.4012 69.7887 82.4795 70.4316 83.2607C71.0745 84.0339 71.9616 84.4204 73.0928 84.4204C74.2646 84.4204 75.1802 84.0542 75.8394 83.3218C76.5067 82.5894 76.8403 81.5721 76.8403 80.27ZM78.6958 66.8789V85.7998H76.8403V83.7734C76.4009 84.5791 75.8312 85.1976 75.1313 85.6289C74.4315 86.0602 73.6502 86.2759 72.7876 86.2759C71.1844 86.2759 69.8905 85.7266 68.9058 84.6279C67.9292 83.5212 67.4409 82.0604 67.4409 80.2456C67.4409 78.4146 67.9211 76.9538 68.8813 75.8633C69.8416 74.7728 71.1193 74.2275 72.7144 74.2275C73.6421 74.2275 74.4478 74.4391 75.1313 74.8623C75.8149 75.2773 76.3683 75.8999 76.7915 76.73V66.8789H78.6958ZM84.4209 80.27C84.4209 81.5721 84.7546 82.5894 85.4219 83.3218C86.0892 84.0542 87.0047 84.4204 88.1685 84.4204C89.3078 84.4204 90.1989 84.0339 90.8418 83.2607C91.4928 82.4795 91.8184 81.4012 91.8184 80.0259C91.8184 78.8052 91.501 77.849 90.8662 77.1572C90.2314 76.4655 89.3525 76.1196 88.2295 76.1196C87.0902 76.1196 86.1706 76.5021 85.4707 77.2671C84.7708 78.0239 84.4209 79.0249 84.4209 80.27ZM82.6021 66.8789H84.4941V76.73C84.9255 75.8999 85.4829 75.2773 86.1665 74.8623C86.8501 74.4391 87.6517 74.2275 88.5713 74.2275C90.1745 74.2275 91.4521 74.7728 92.4043 75.8633C93.3646 76.9538 93.8447 78.4146 93.8447 80.2456C93.8447 82.0604 93.3564 83.5212 92.3799 84.6279C91.4033 85.7266 90.1094 86.2759 88.498 86.2759C87.6354 86.2759 86.8501 86.0602 86.1421 85.6289C85.4341 85.1895 84.8604 84.571 84.4209 83.7734V85.7998H82.6021V66.8789ZM105.454 80.3188C105.454 79.0575 105.108 78.0443 104.416 77.2793C103.732 76.5062 102.837 76.1196 101.73 76.1196C100.583 76.1196 99.6878 76.4736 99.0449 77.1816C98.402 77.8896 98.0806 78.8784 98.0806 80.1479C98.0806 81.4989 98.402 82.5405 99.0449 83.2729C99.696 84.0054 100.616 84.3716 101.804 84.3716C102.943 84.3716 103.834 84.0176 104.477 83.3096C105.128 82.5934 105.454 81.5965 105.454 80.3188ZM107.309 74.6304V85.7998H105.454V83.7734C105.006 84.5872 104.432 85.2098 103.732 85.6411C103.041 86.0643 102.264 86.2759 101.401 86.2759C99.7977 86.2759 98.5037 85.7266 97.519 84.6279C96.5425 83.5212 96.0542 82.0604 96.0542 80.2456C96.0542 78.4064 96.5303 76.9456 97.4824 75.8633C98.4346 74.7728 99.7082 74.2275 101.303 74.2275C102.239 74.2275 103.049 74.4391 103.732 74.8623C104.424 75.2773 104.982 75.8999 105.405 76.73V74.6304H107.309ZM111.24 85.7998V66.8789H113.193V85.7998H111.24ZM117.294 85.7998V66.8789H119.248V85.7998H117.294Z" fill="white"/>
</svg>
