<svg width="201" height="69" viewBox="0 0 201 69" fill="none" xmlns="http://www.w3.org/2000/svg">
<path d="M68.2339 39.2119C71.4924 40.6019 73.9419 42.4476 75.5825 44.749C77.2459 47.0505 78.0776 49.7734 78.0776 52.918C78.0776 57.5208 76.6079 61.235 73.6685 64.0605C70.7518 66.8633 66.8781 68.2646 62.0474 68.2646C58.1053 68.2646 54.8013 67.262 52.1353 65.2568C49.4692 63.2288 47.6691 60.3577 46.7349 56.6436L52.1353 53.9775C52.8644 57.0081 54.0607 59.3096 55.7241 60.8818C57.4103 62.4313 59.5181 63.2061 62.0474 63.2061C65.0324 63.2061 67.4478 62.3516 69.2935 60.6426C71.1392 58.9108 72.062 56.6663 72.062 53.9092C72.062 51.6761 71.4126 49.7393 70.1138 48.0986C68.8377 46.4352 66.9009 45.0339 64.3032 43.8945L58.2192 41.2969C54.8924 39.9069 52.4087 38.1182 50.7681 35.9307C49.1502 33.7432 48.3413 31.1227 48.3413 28.0693C48.3413 24.5146 49.6629 21.5752 52.3062 19.251C54.9494 16.9268 58.3218 15.7646 62.4233 15.7646C65.4312 15.7646 68.0288 16.4027 70.2163 17.6787C72.4266 18.9548 74.147 20.8346 75.3774 23.3184L70.4556 26.4629C69.339 24.526 68.0858 23.0905 66.6958 22.1562C65.3058 21.1992 63.7336 20.7207 61.979 20.7207C59.7459 20.7207 57.9116 21.4043 56.4761 22.7715C55.0633 24.1387 54.3569 25.8818 54.3569 28.001C54.3569 29.7783 54.9038 31.3164 55.9976 32.6152C57.0913 33.9141 58.7889 35.0648 61.0903 36.0674L68.2339 39.2119ZM86.3149 40.1348H80.5728V35.7256H86.3149V23.1133H91.7837V35.7256H97.5259V40.1348H91.7837V67H86.3149V40.1348ZM127.536 51.6533C127.536 48.1214 126.567 45.2845 124.63 43.1426C122.716 40.9779 120.21 39.8955 117.111 39.8955C113.898 39.8955 111.391 40.8867 109.591 42.8691C107.791 44.8516 106.891 47.6201 106.891 51.1748C106.891 54.9574 107.791 57.874 109.591 59.9248C111.414 61.9756 113.989 63.001 117.316 63.001C120.506 63.001 123.001 62.0098 124.801 60.0273C126.624 58.0221 127.536 55.2308 127.536 51.6533ZM132.731 35.7256V67H127.536V61.3262C126.282 63.6048 124.676 65.348 122.716 66.5557C120.779 67.7406 118.603 68.333 116.188 68.333C111.699 68.333 108.076 66.7949 105.319 63.7188C102.584 60.6198 101.217 56.5296 101.217 51.4482C101.217 46.2985 102.55 42.2083 105.216 39.1777C107.882 36.1243 111.448 34.5977 115.915 34.5977C118.535 34.5977 120.802 35.1901 122.716 36.375C124.653 37.5371 126.214 39.2803 127.399 41.6045V35.7256H132.731ZM144.284 40.1348H138.542V35.7256H144.284V23.1133H149.752V35.7256H155.495V40.1348H149.752V67H144.284V40.1348ZM158.263 61.7363L162.843 58.6602C163.709 60.3236 164.803 61.5768 166.125 62.4199C167.446 63.2402 169.007 63.6504 170.807 63.6504C172.562 63.6504 173.974 63.2174 175.045 62.3516C176.139 61.4857 176.686 60.3464 176.686 58.9336C176.686 57.8398 176.31 56.9284 175.558 56.1992C174.829 55.4701 173.564 54.7979 171.764 54.1826C171.582 54.1143 171.286 54.0117 170.875 53.875C163.265 51.2546 159.459 47.9733 159.459 44.0312C159.459 41.2513 160.485 38.984 162.536 37.2295C164.586 35.4749 167.252 34.5977 170.534 34.5977C173.245 34.5977 175.569 35.1445 177.506 36.2383C179.443 37.3092 180.833 38.8359 181.676 40.8184L177.335 43.4844C176.697 42.0488 175.752 40.9437 174.499 40.1689C173.268 39.3942 171.833 39.0068 170.192 39.0068C168.62 39.0068 167.332 39.4512 166.33 40.3398C165.35 41.2057 164.86 42.3223 164.86 43.6895C164.86 45.6035 166.933 47.21 171.081 48.5088C171.855 48.7594 172.471 48.9531 172.926 49.0898C176.321 50.1836 178.68 51.4368 180.001 52.8496C181.346 54.2396 182.018 56.0853 182.018 58.3867C182.018 61.349 180.958 63.7529 178.839 65.5986C176.743 67.4215 173.997 68.333 170.602 68.333C167.685 68.333 165.202 67.7861 163.151 66.6924C161.123 65.5986 159.494 63.9466 158.263 61.7363Z" fill="white"/>
<line x1="29.5003" y1="67" x2="29.5003" y2="17" stroke="white" stroke-width="3"/>
<line x1="15.4996" y1="67" x2="15.4996" y2="27" stroke="white" stroke-width="3"/>
<line x1="1.5" y1="66.9526" x2="1.5" y2="36.9526" stroke="white" stroke-width="3"/>
</svg>
