<svg width="224" height="91" viewBox="0 0 224 91" fill="none" xmlns="http://www.w3.org/2000/svg">
<path d="M97.4531 67.9062C97.4531 73.2708 95.7865 77.5026 92.4531 80.6016C89.1198 83.6745 84.5625 85.2109 78.7812 85.2109C74.7969 85.2109 71.3073 84.2995 68.3125 82.4766C65.3438 80.6536 63.1823 78.1276 61.8281 74.8984L66.6328 70.7969C67.5443 73.3229 69.1068 75.3021 71.3203 76.7344C73.5599 78.1667 76.138 78.8828 79.0547 78.8828C82.7005 78.8828 85.5521 77.9453 87.6094 76.0703C89.6927 74.1953 90.7344 71.5521 90.7344 68.1406C90.7344 65.3802 89.7708 62.9844 87.8438 60.9531C85.9427 58.8958 82.7396 56.7604 78.2344 54.5469C72.8958 51.9167 69.1719 49.3516 67.0625 46.8516C64.9792 44.3516 63.9375 41.1875 63.9375 37.3594C63.9375 32.9062 65.4479 29.3125 68.4688 26.5781C71.4896 23.8438 75.487 22.4766 80.4609 22.4766C83.4818 22.4766 86.138 23.0755 88.4297 24.2734C90.7214 25.4453 92.6615 27.2161 94.25 29.5859L89.6797 33.8438C88.7943 32.2552 87.5052 31.0182 85.8125 30.1328C84.1458 29.2474 82.2578 28.8047 80.1484 28.8047C77.2057 28.8047 74.888 29.5469 73.1953 31.0312C71.5026 32.5156 70.6562 34.5208 70.6562 37.0469C70.6562 39.3385 71.2943 41.2656 72.5703 42.8281C73.8724 44.3906 76.4245 46.2005 80.2266 48.2578L80.5781 48.4141C91.8281 54.4557 97.4531 60.9531 97.4531 67.9062ZM119.992 52.3984H114.055V84H107.688V52.3984H103.195V46.6562H107.688V31.5391H114.055V46.6562H119.992V52.3984ZM154.406 64.8984C154.406 60.8099 153.273 57.5807 151.008 55.2109C148.768 52.8151 145.773 51.6172 142.023 51.6172C138.299 51.6172 135.266 52.8542 132.922 55.3281C130.604 57.8021 129.445 61.0703 129.445 65.1328C129.445 69.2474 130.591 72.5938 132.883 75.1719C135.174 77.75 138.117 79.0391 141.711 79.0391C145.357 79.0391 148.378 77.724 150.773 75.0938C153.195 72.4375 154.406 69.0391 154.406 64.8984ZM160.812 84H154.406V77.8281C153.13 80.224 151.333 82.0599 149.016 83.3359C146.724 84.5859 144.016 85.2109 140.891 85.2109C135.682 85.2109 131.398 83.3229 128.039 79.5469C124.68 75.7708 123 70.9401 123 65.0547C123 59.2995 124.68 54.612 128.039 50.9922C131.424 47.3464 135.76 45.5234 141.047 45.5234C144.042 45.5234 146.685 46.1094 148.977 47.2812C151.268 48.4531 153.078 50.1328 154.406 52.3203V46.6562H160.812V84ZM184.992 52.3984H179.055V84H172.688V52.3984H168.195V46.6562H172.688V31.5391H179.055V46.6562H184.992V52.3984ZM214.523 73.9219C214.523 77.3594 213.273 80.1068 210.773 82.1641C208.273 84.1953 204.862 85.2109 200.539 85.2109C197.284 85.2109 194.523 84.5599 192.258 83.2578C190.018 81.9297 188.378 80.0156 187.336 77.5156L192.766 74.0781C193.521 75.875 194.576 77.2161 195.93 78.1016C197.284 78.987 198.951 79.4297 200.93 79.4297C203.117 79.4297 204.862 78.974 206.164 78.0625C207.466 77.151 208.117 75.901 208.117 74.3125C208.117 72.5677 207.518 71.2396 206.32 70.3281C205.148 69.4167 202.844 68.349 199.406 67.125C196.047 65.875 193.521 64.3255 191.828 62.4766C190.161 60.6276 189.328 58.4401 189.328 55.9141C189.328 52.6849 190.396 50.1458 192.531 48.2969C194.693 46.4479 197.701 45.5234 201.555 45.5234C204.367 45.5234 206.711 46.0964 208.586 47.2422C210.461 48.388 211.958 50.1589 213.078 52.5547L207.805 55.7578C207.128 54.1953 206.268 53.0495 205.227 52.3203C204.185 51.5651 202.883 51.1875 201.32 51.1875C199.523 51.1875 198.117 51.6042 197.102 52.4375C196.086 53.2448 195.578 54.3516 195.578 55.7578C195.578 57.1901 196.099 58.388 197.141 59.3516C198.208 60.3151 200.135 61.2526 202.922 62.1641C207.036 63.4922 209.992 65.0807 211.789 66.9297C213.612 68.7526 214.523 71.0833 214.523 73.9219Z" fill="white"/>
<rect y="45.5928" width="8.23529" height="41.1765" fill="white"/>
<rect x="15.8821" y="33.828" width="8.23529" height="52.9412" fill="white"/>
<rect x="31.7649" y="22.0634" width="8.23529" height="64.7059" fill="white"/>
</svg>
