<svg width="140" height="49" viewBox="0 0 140 49" fill="none" xmlns="http://www.w3.org/2000/svg">
<path d="M46.3101 28.1514C48.6375 29.1442 50.3872 30.4626 51.5591 32.1064C52.7472 33.7503 53.3413 35.6953 53.3413 37.9414C53.3413 41.2292 52.2915 43.8822 50.1919 45.9004C48.1086 47.9023 45.3416 48.9033 41.8911 48.9033C39.0754 48.9033 36.7153 48.1872 34.811 46.7549C32.9067 45.3063 31.6209 43.2555 30.9536 40.6025L34.811 38.6982C35.3319 40.863 36.1864 42.5068 37.3745 43.6299C38.5789 44.7367 40.0845 45.29 41.8911 45.29C44.0233 45.29 45.7485 44.6797 47.0669 43.459C48.3853 42.222 49.0444 40.6188 49.0444 38.6494C49.0444 37.0544 48.5806 35.6709 47.6528 34.499C46.7414 33.3109 45.3579 32.3099 43.5024 31.4961L39.1567 29.6406C36.7804 28.6478 35.0063 27.3701 33.8345 25.8076C32.6789 24.2451 32.1011 22.3734 32.1011 20.1924C32.1011 17.6533 33.0451 15.5537 34.9331 13.8936C36.8211 12.2334 39.23 11.4033 42.1597 11.4033C44.3081 11.4033 46.1636 11.859 47.7261 12.7705C49.3049 13.682 50.5337 15.0247 51.4126 16.7988L47.897 19.0449C47.0994 17.6615 46.2043 16.6361 45.2114 15.9688C44.2186 15.2852 43.0955 14.9434 41.8423 14.9434C40.2472 14.9434 38.937 15.4316 37.9116 16.4082C36.9025 17.3848 36.3979 18.6299 36.3979 20.1436C36.3979 21.4131 36.7886 22.5117 37.5698 23.4395C38.3511 24.3672 39.5636 25.1891 41.2075 25.9053L46.3101 28.1514ZM59.2251 28.8105H55.1235V25.6611H59.2251V16.6523H63.1313V25.6611H67.2329V28.8105H63.1313V48H59.2251V28.8105ZM88.6685 37.0381C88.6685 34.5153 87.9767 32.4889 86.5933 30.959C85.2261 29.4128 83.4357 28.6396 81.2222 28.6396C78.9272 28.6396 77.1369 29.3477 75.8511 30.7637C74.5653 32.1797 73.9224 34.1572 73.9224 36.6963C73.9224 39.3981 74.5653 41.4814 75.8511 42.9463C77.1532 44.4111 78.9924 45.1436 81.3687 45.1436C83.6473 45.1436 85.4295 44.4355 86.7153 43.0195C88.0174 41.5872 88.6685 39.5934 88.6685 37.0381ZM92.3794 25.6611V48H88.6685V43.9473C87.7733 45.5749 86.6258 46.82 85.2261 47.6826C83.8426 48.529 82.2882 48.9521 80.563 48.9521C77.3566 48.9521 74.7687 47.8535 72.7993 45.6562C70.8462 43.4427 69.8696 40.5212 69.8696 36.8916C69.8696 33.2132 70.8218 30.2917 72.7261 28.127C74.6304 25.946 77.1776 24.8555 80.3677 24.8555C82.2394 24.8555 83.8589 25.2786 85.2261 26.125C86.6095 26.9551 87.7244 28.2002 88.5708 29.8604V25.6611H92.3794ZM100.631 28.8105H96.5298V25.6611H100.631V16.6523H104.538V25.6611H108.639V28.8105H104.538V48H100.631V28.8105ZM110.617 44.2402L113.888 42.043C114.507 43.2311 115.288 44.1263 116.232 44.7285C117.176 45.3145 118.291 45.6074 119.577 45.6074C120.83 45.6074 121.839 45.2982 122.604 44.6797C123.385 44.0612 123.776 43.2474 123.776 42.2383C123.776 41.457 123.507 40.806 122.97 40.2852C122.449 39.7643 121.546 39.2842 120.26 38.8447C120.13 38.7959 119.918 38.7227 119.625 38.625C114.189 36.7533 111.471 34.4095 111.471 31.5938C111.471 29.6081 112.204 27.9886 113.668 26.7354C115.133 25.4821 117.038 24.8555 119.381 24.8555C121.318 24.8555 122.978 25.2461 124.362 26.0273C125.745 26.7923 126.738 27.8828 127.34 29.2988L124.24 31.2031C123.784 30.1777 123.109 29.3883 122.213 28.835C121.334 28.2816 120.309 28.0049 119.137 28.0049C118.014 28.0049 117.095 28.3223 116.378 28.957C115.679 29.5755 115.329 30.373 115.329 31.3496C115.329 32.7168 116.81 33.8643 119.772 34.792C120.325 34.971 120.765 35.1094 121.09 35.207C123.515 35.9883 125.2 36.8835 126.144 37.8926C127.104 38.8854 127.584 40.2038 127.584 41.8477C127.584 43.9635 126.828 45.6807 125.314 46.999C123.817 48.3011 121.855 48.9521 119.43 48.9521C117.347 48.9521 115.573 48.5615 114.108 47.7803C112.659 46.999 111.496 45.819 110.617 44.2402Z" fill="white"/>
<line x1="19.9803" y1="48" x2="19.9803" y2="15" stroke="white" stroke-width="3"/>
<line x1="10.7399" y1="48" x2="10.7399" y2="21.6" stroke="white" stroke-width="3"/>
<line x1="1.5" y1="47.9687" x2="1.5" y2="28.1687" stroke="white" stroke-width="3"/>
</svg>
