<svg width="48" height="38" viewBox="0 0 48 38" fill="none" xmlns="http://www.w3.org/2000/svg">
<g filter="url(#filter0_d_14_3)">
<mask id="path-1-inside-1_14_3" fill="white">
<path fill-rule="evenodd" clip-rule="evenodd" d="M34.1237 0.00534915L34.1289 0L41.9905 8.16586L42.0105 8.14502L44 10.2115L38.0316 16.4109L36.1384 14.4444L36.1183 14.4652L34.1237 12.3934V29.2241H23.9962V29.2242H13.8675V12.4028L11.8817 14.4655L11.8617 14.4447L9.96839 16.4112L4 10.2119L5.98946 8.14542L6.00947 8.1662L13.8675 0.00404008V5.93494e-05H19.4664L21.464 2.36721L23.9956 5.2597L26.5272 2.36715L28.5248 0H34.1237V0.00534915Z"/>
</mask>
<path fill-rule="evenodd" clip-rule="evenodd" d="M34.1237 0.00534915L34.1289 0L41.9905 8.16586L42.0105 8.14502L44 10.2115L38.0316 16.4109L36.1384 14.4444L36.1183 14.4652L34.1237 12.3934V29.2241H23.9962V29.2242H13.8675V12.4028L11.8817 14.4655L11.8617 14.4447L9.96839 16.4112L4 10.2119L5.98946 8.14542L6.00947 8.1662L13.8675 0.00404008V5.93494e-05H19.4664L21.464 2.36721L23.9956 5.2597L26.5272 2.36715L28.5248 0H34.1237V0.00534915Z" fill="white"/>
<path d="M34.1289 0L34.4891 -0.346779L34.1289 -0.72092L33.7687 -0.346779L34.1289 0ZM34.1237 0.00534915H33.6237V1.24562L34.4839 0.352128L34.1237 0.00534915ZM41.9905 8.16586L41.6303 8.51264L41.9905 8.8868L42.3507 8.51263L41.9905 8.16586ZM42.0105 8.14502L42.3707 7.79824L42.0105 7.42409L41.6503 7.79825L42.0105 8.14502ZM44 10.2115L44.3602 10.5583L44.6941 10.2115L44.3602 9.8647L44 10.2115ZM38.0316 16.4109L37.6714 16.7576L38.0316 17.1318L38.3918 16.7576L38.0316 16.4109ZM36.1384 14.4444L36.4986 14.0976L36.1384 13.7234L35.7782 14.0976L36.1384 14.4444ZM36.1183 14.4652L35.7581 14.812L36.1184 15.1861L36.4785 14.812L36.1183 14.4652ZM34.1237 12.3934L34.4839 12.0466L33.6237 11.1531V12.3934H34.1237ZM34.1237 29.2241V29.7241H34.6237V29.2241H34.1237ZM23.9962 29.2241V28.7241H23.4962V29.2241H23.9962ZM23.9962 29.2242V29.7242H24.4962V29.2242H23.9962ZM13.8675 29.2242H13.3675V29.7242H13.8675V29.2242ZM13.8675 12.4028H14.3675V11.1625L13.5073 12.056L13.8675 12.4028ZM11.8817 14.4655L11.5215 14.8123L11.8817 15.1864L12.2419 14.8123L11.8817 14.4655ZM11.8617 14.4447L12.2219 14.0979L11.8617 13.7238L11.5015 14.0979L11.8617 14.4447ZM9.96839 16.4112L9.60819 16.758L9.96839 17.1322L10.3286 16.758L9.96839 16.4112ZM4 10.2119L3.6398 9.8651L3.30594 10.2119L3.6398 10.5587L4 10.2119ZM5.98946 8.14542L6.34966 7.79864L5.98946 7.4245L5.62926 7.79864L5.98946 8.14542ZM6.00947 8.1662L5.64927 8.51298L6.00947 8.88712L6.36967 8.51298L6.00947 8.1662ZM13.8675 0.00404008L14.2277 0.350819L14.3675 0.205609V0.00404008H13.8675ZM13.8675 5.93494e-05V-0.499941H13.3675V5.93494e-05H13.8675ZM19.4664 5.93494e-05L19.8485 -0.322406L19.6987 -0.499941H19.4664V5.93494e-05ZM21.464 2.36721L21.0818 2.68973L21.0878 2.69651L21.464 2.36721ZM23.9956 5.2597L23.6193 5.589L23.9956 6.01889L24.3718 5.589L23.9956 5.2597ZM26.5272 2.36715L26.9035 2.69651L26.9093 2.68962L26.5272 2.36715ZM28.5248 0V-0.5H28.2925L28.1427 -0.322465L28.5248 0ZM34.1237 0H34.6237V-0.5H34.1237V0ZM33.7687 -0.346779L33.7635 -0.34143L34.4839 0.352128L34.4891 0.346779L33.7687 -0.346779ZM42.3507 7.81908L34.4891 -0.346779L33.7687 0.346779L41.6303 8.51264L42.3507 7.81908ZM41.6503 7.79825L41.6303 7.8191L42.3507 8.51263L42.3708 8.49179L41.6503 7.79825ZM44.3602 9.8647L42.3707 7.79824L41.6503 8.4918L43.6398 10.5583L44.3602 9.8647ZM38.3918 16.7576L44.3602 10.5583L43.6398 9.8647L37.6714 16.0641L38.3918 16.7576ZM35.7782 14.7911L37.6714 16.7576L38.3918 16.0641L36.4986 14.0976L35.7782 14.7911ZM36.4785 14.812L36.4986 14.7911L35.7782 14.0976L35.7581 14.1184L36.4785 14.812ZM33.7635 12.7402L35.7581 14.812L36.4785 14.1184L34.4839 12.0466L33.7635 12.7402ZM33.6237 12.3934V29.2241H34.6237V12.3934H33.6237ZM34.1237 28.7241H23.9962V29.7241H34.1237V28.7241ZM23.4962 29.2241V29.2242H24.4962V29.2241H23.4962ZM23.9962 28.7242H13.8675V29.7242H23.9962V28.7242ZM14.3675 29.2242V12.4028H13.3675V29.2242H14.3675ZM13.5073 12.056L11.5215 14.1187L12.2419 14.8123L14.2277 12.7496L13.5073 12.056ZM12.2419 14.1187L12.2219 14.0979L11.5015 14.7915L11.5215 14.8123L12.2419 14.1187ZM11.5015 14.0979L9.60819 16.0645L10.3286 16.758L12.2219 14.7915L11.5015 14.0979ZM10.3286 16.0645L4.3602 9.8651L3.6398 10.5587L9.60819 16.758L10.3286 16.0645ZM4.3602 10.5587L6.34966 8.4922L5.62926 7.79864L3.6398 9.8651L4.3602 10.5587ZM5.62926 8.4922L5.64927 8.51298L6.36967 7.81942L6.34966 7.79864L5.62926 8.4922ZM6.36967 8.51298L14.2277 0.350819L13.5073 -0.342739L5.64927 7.81942L6.36967 8.51298ZM14.3675 0.00404008V5.93494e-05H13.3675V0.00404008H14.3675ZM13.8675 0.500059H19.4664V-0.499941H13.8675V0.500059ZM19.0843 0.322525L21.0819 2.68968L21.8461 2.04475L19.8485 -0.322406L19.0843 0.322525ZM21.0878 2.69651L23.6193 5.589L24.3718 4.9304L21.8403 2.03791L21.0878 2.69651ZM24.3718 5.589L26.9034 2.69645L26.1509 2.03786L23.6193 4.9304L24.3718 5.589ZM26.9093 2.68962L28.9069 0.322465L28.1427 -0.322465L26.1451 2.04469L26.9093 2.68962ZM28.5248 0.5H34.1237V-0.5H28.5248V0.5ZM33.6237 0V0.00534915H34.6237V0H33.6237Z" fill="black" mask="url(#path-1-inside-1_14_3)"/>
<line y1="-1" x2="12" y2="-1" transform="matrix(-1 0 0 1 30.5022 21)" stroke="#36B416" stroke-width="2"/>
<line y1="-1" x2="6.4" y2="-1" transform="matrix(-0.707107 0.707107 0.707107 0.707107 23.5022 17)" stroke="#36B416" stroke-width="2"/>
<line y1="-1" x2="6.4" y2="-1" transform="matrix(-0.707107 -0.707107 -0.707107 0.707107 22.0022 24.6)" stroke="#36B416" stroke-width="2"/>
<line x1="17.4766" y1="11" x2="29.4766" y2="11" stroke="#C71414" stroke-width="2"/>
<line x1="25.1837" y1="7.29289" x2="29.7092" y2="11.8184" stroke="#C71414" stroke-width="2"/>
<line x1="25.2695" y1="14.8929" x2="29.7949" y2="10.3674" stroke="#C71414" stroke-width="2"/>
</g>
<defs>
<filter id="filter0_d_14_3" x="0" y="0" width="48" height="37.2242" filterUnits="userSpaceOnUse" color-interpolation-filters="sRGB">
<feFlood flood-opacity="0" result="BackgroundImageFix"/>
<feColorMatrix in="SourceAlpha" type="matrix" values="0 0 0 0 0 0 0 0 0 0 0 0 0 0 0 0 0 0 127 0" result="hardAlpha"/>
<feOffset dy="4"/>
<feGaussianBlur stdDeviation="2"/>
<feColorMatrix type="matrix" values="0 0 0 0 0 0 0 0 0 0 0 0 0 0 0 0 0 0 0.25 0"/>
<feBlend mode="normal" in2="BackgroundImageFix" result="effect1_dropShadow_14_3"/>
<feBlend mode="normal" in="SourceGraphic" in2="effect1_dropShadow_14_3" result="shape"/>
</filter>
</defs>
</svg>
