<svg xmlns="http://www.w3.org/2000/svg" width="390" height="197" viewBox="0 0 390 197" fill="none">
<path d="M-85 0.739746C75.2011 18.9279 171.15 20.1963 335.263 27.0984L279.164 81.5128C342.696 98.6365 455.532 109.723 455.532 109.723V196.027C317.008 188.536 232.751 175.158 79.2314 136.63L149.922 98.6365C46.7558 80.3227 12.4888 67.63 -84.9987 53.964L-85 0.739746Z" fill="#F5F5F5"/>
<path d="M-85 0.739746C75.2011 18.9279 171.15 20.1963 335.263 27.0984L279.164 81.5128C342.696 98.6365 455.532 109.723 455.532 109.723V196.027C317.008 188.536 232.751 175.158 79.2314 136.63L149.922 98.6365C46.7558 80.3227 12.4888 67.63 -84.9987 53.964L-85 0.739746Z" fill="url(#paint0_linear_643_841)" fill-opacity="0.2"/>
<defs>
<linearGradient id="paint0_linear_643_841" x1="185.266" y1="0.739746" x2="185.266" y2="196.027" gradientUnits="userSpaceOnUse">
<stop offset="0.609375" stop-color="white"/>
<stop offset="1" stop-color="#D5D5D5"/>
</linearGradient>
</defs>
</svg>