<svg width="86" height="86" viewBox="0 0 86 86" fill="none" xmlns="http://www.w3.org/2000/svg">
<path id="Arrow 1" d="M1.04072 9.33136C0.0712928 9.86077 -0.285416 11.0758 0.243991 12.0453L8.87122 27.8431C9.40064 28.8125 10.6157 29.1692 11.5851 28.6398C12.5545 28.1104 12.9113 26.8953 12.3818 25.9259L4.7132 11.8834L18.7557 4.21475C19.7251 3.68534 20.0818 2.47029 19.5524 1.50086C19.023 0.531424 17.808 0.174716 16.8385 0.704128L1.04072 9.33136ZM85.7385 84.0113C72.1926 60.1933 60.776 44.194 48.0157 32.7894C35.2106 21.3448 21.1694 14.6301 2.56268 9.16766L1.43593 13.0057C19.6759 18.3605 33.1227 24.8435 45.3501 35.7718C57.6222 46.74 68.7826 62.2887 82.2615 85.9887L85.7385 84.0113Z" fill="black"/>
</svg>
